<svg width="115" height="94" viewBox="0 0 115 94" fill="none" xmlns="http://www.w3.org/2000/svg">
<path fill-rule="evenodd" clip-rule="evenodd" d="M113.727 1H45.4759V19.6124H1V53.8786C1 75.2949 33.0572 91.9997 33.0572 91.9997C33.0572 91.9997 51.6899 83.7841 60.5447 69.2509H113.727V1ZM60.5447 69.2509C63.3045 64.7213 65.1145 59.578 65.1145 53.8786V19.6124H45.4759V69.2509H60.5447Z" fill="url(#paint0_linear_14_71)"/>
<path d="M45.4759 1V0H44.4759V1H45.4759ZM113.727 1H114.727V0H113.727V1ZM1 19.6124V18.6124H0V19.6124H1ZM33.0572 91.9997L32.5951 92.8865L33.0211 93.1085L33.4607 92.9147L33.0572 91.9997ZM113.727 69.2509V70.2509H114.727V69.2509H113.727ZM65.1145 19.6124H66.1145V18.6124H65.1145V19.6124ZM45.4759 69.2509H44.4759V70.2509H45.4759V69.2509ZM45.4759 2H113.727V0H45.4759V2ZM46.4759 19.6124V1H44.4759V19.6124H46.4759ZM1 20.6124H45.4759V18.6124H1V20.6124ZM2 53.8786V19.6124H0V53.8786H2ZM33.0572 91.9997C33.5194 91.1129 33.5195 91.1129 33.5194 91.1129C33.5193 91.1128 33.5191 91.1127 33.5188 91.1126C33.5181 91.1122 33.517 91.1116 33.5153 91.1108C33.5121 91.1091 33.5069 91.1063 33.4998 91.1026C33.4856 91.0951 33.4639 91.0837 33.4349 91.0682C33.3768 91.0373 33.2894 90.9905 33.1747 90.9282C32.9452 90.8035 32.6065 90.6168 32.1742 90.3708C31.3094 89.879 30.0707 89.1508 28.5828 88.2098C25.6049 86.3265 21.6393 83.5972 17.6785 80.2102C9.69353 73.3821 2 64.1115 2 53.8786H0C0 65.062 8.33509 74.852 16.3787 81.7303C20.4323 85.1966 24.4809 87.982 27.5138 89.9001C29.0312 90.8598 30.297 91.604 31.1854 92.1093C31.6296 92.362 31.9796 92.555 32.2198 92.6855C32.3399 92.7508 32.4325 92.8004 32.4957 92.834C32.5273 92.8508 32.5515 92.8636 32.5682 92.8724C32.5765 92.8768 32.583 92.8801 32.5875 92.8825C32.5897 92.8837 32.5915 92.8846 32.5927 92.8853C32.5934 92.8856 32.594 92.8859 32.5943 92.8861C32.5948 92.8863 32.5951 92.8865 33.0572 91.9997ZM59.6908 68.7306C55.3715 75.8196 48.6348 81.4102 42.923 85.245C40.0751 87.157 37.5003 88.6205 35.6393 89.605C34.7092 90.097 33.9584 90.4689 33.4422 90.7169C33.1841 90.8408 32.9847 90.9338 32.851 90.9953C32.7842 91.026 32.7337 91.0488 32.7006 91.0638C32.684 91.0712 32.6717 91.0767 32.6639 91.0802C32.66 91.0819 32.6572 91.0832 32.6555 91.0839C32.6546 91.0843 32.6541 91.0846 32.6538 91.0847C32.6536 91.0847 32.6536 91.0847 32.6536 91.0848C32.6536 91.0847 32.6538 91.0847 33.0572 91.9997C33.4607 92.9147 33.461 92.9146 33.4613 92.9144C33.4615 92.9143 33.462 92.9141 33.4624 92.9139C33.4632 92.9136 33.4644 92.913 33.4658 92.9124C33.4686 92.9112 33.4726 92.9094 33.4777 92.9071C33.4878 92.9026 33.5024 92.8961 33.5214 92.8876C33.5592 92.8705 33.6145 92.8455 33.6863 92.8125C33.8298 92.7465 34.0394 92.6488 34.3081 92.5197C34.8455 92.2616 35.6195 91.8781 36.5746 91.3728C38.4839 90.3628 41.1207 88.864 44.0378 86.9055C49.8561 82.9992 56.8631 77.2154 61.3987 69.7712L59.6908 68.7306ZM113.727 68.2509H60.5447V70.2509H113.727V68.2509ZM112.727 1V69.2509H114.727V1H112.727ZM64.1145 53.8786C64.1145 59.3578 62.3761 64.3231 59.6908 68.7306L61.3987 69.7712C64.2329 65.1195 66.1145 59.7983 66.1145 53.8786H64.1145ZM64.1145 19.6124V53.8786H66.1145V19.6124H64.1145ZM45.4759 20.6124H65.1145V18.6124H45.4759V20.6124ZM46.4759 69.2509V19.6124H44.4759V69.2509H46.4759ZM60.5447 68.2509H45.4759V70.2509H60.5447V68.2509Z" fill="url(#paint1_linear_14_71)"/>
<defs>
<linearGradient id="paint0_linear_14_71" x1="1" y1="1" x2="89.9529" y2="111.191" gradientUnits="userSpaceOnUse">
<stop stop-color="#FF4F42"/>
<stop offset="1" stop-color="#FF8E3C"/>
</linearGradient>
<linearGradient id="paint1_linear_14_71" x1="1" y1="1" x2="89.9529" y2="111.191" gradientUnits="userSpaceOnUse">
<stop stop-color="#FF4F42"/>
<stop offset="1" stop-color="#FF8E3C"/>
</linearGradient>
</defs>
</svg>
